# xmcd
# 
# Track frame offsets:
#     150
#     10414
#     44452
#     95225
#     103560
#     122379
#     156364
#     205718
#     239797
# 
# Disc length: 3676
# 
# Revision: 1
# Processed by: cddbd v1.5.2PL0 Copyright (c) Steve Scherf et al.
# Submitted via: fre:ac v1.0.31
# 
DISCID=780e5a09
DTITLE=Weather Report - The Legendary Live Tapes: 1978-1981 Disc 1
DYEAR=2015
DGENRE=Jazz
TTITLE0=8:30
TTITLE1=Sightseeing
TTITLE2=Brown Street
TTITLE3=The Orphan
TTITLE4=Forlorn
TTITLE5=Three Views of a Secret
TTITLE6=Badia - Boogie Woogie
TTITLE7=Wayne Solo
TTITLE8=Jaco Solo
EXTD=YEAR: 2015
EXTT0=
EXTT1=
EXTT2=
EXTT3=
EXTT4=
EXTT5=
EXTT6=
EXTT7=
EXTT8=
PLAYORDER=
